<svg xmlns="http://www.w3.org/2000/svg" viewBox="0 0 900 900" role="img" aria-labelledby="t d"><title id="t">The Hello Blanket, page 1</title><desc id="d">Four young friends arriving at a sunny park picnic with a rolled rainbow blanket.</desc><rect width="900" height="900" fill="#bfe9ff"/><circle cx="760" cy="120" r="70" fill="#ffd95a"/><path d="M0 590 Q220 500 450 585 T900 560 V900H0Z" fill="#8fd36f"/><g fill="#fff" opacity=".9"><ellipse cx="180" cy="150" rx="95" ry="38"/><ellipse cx="610" cy="215" rx="120" ry="42"/></g><rect x="250" y="650" width="400" height="130" rx="30" fill="#ff7f73"/><path d="M250 690h400M330 650v130M410 650v130M490 650v130M570 650v130" stroke="#ffe67b" stroke-width="18"/><g stroke="#5b4a42" stroke-width="18" stroke-linecap="round"><path d="M155 565v95M330 540v120M565 550v110M745 535v125"/></g><g><circle cx="155" cy="500" r="58" fill="#8b5a3c"/><circle cx="330" cy="475" r="58" fill="#d99a6c"/><circle cx="565" cy="485" r="58" fill="#6f442f"/><circle cx="745" cy="470" r="58" fill="#f1c39c"/></g><g fill="#3d3655"><path d="M105 500q50-95 100 0q-50-30-100 0"/><path d="M280 475q50-95 100 0q-50-30-100 0"/><path d="M515 485q50-95 100 0q-50-30-100 0"/><path d="M695 470q50-95 100 0q-50-30-100 0"/></g><g fill="#fff"><circle cx="137" cy="505" r="7"/><circle cx="173" cy="505" r="7"/><circle cx="312" cy="480" r="7"/><circle cx="348" cy="480" r="7"/><circle cx="547" cy="490" r="7"/><circle cx="583" cy="490" r="7"/><circle cx="727" cy="475" r="7"/><circle cx="763" cy="475" r="7"/></g><path d="M95 590q60-45 120 0v105H95Z" fill="#7c68d9"/><path d="M270 565q60-45 120 0v130H270Z" fill="#43b7a8"/><path d="M505 575q60-45 120 0v120H505Z" fill="#f29b4b"/><path d="M685 560q60-45 120 0v135H685Z" fill="#e85f83"/></svg>